<?xml version="1.0" encoding="utf-8"?>
<!-- Generator: Adobe Illustrator 25.2.3, SVG Export Plug-In . SVG Version: 6.00 Build 0)  -->
<svg version="1.1" id="Layer_1" xmlns="http://www.w3.org/2000/svg" xmlns:xlink="http://www.w3.org/1999/xlink" x="0px" y="0px"
	 viewBox="0 0 44 44" style="enable-background:new 0 0 44 44;" xml:space="preserve">
<style type="text/css">
	.st0{fill:#5D1219;}
	.st1{fill:#FFFFFF;}
</style>
<circle class="st0" cx="22" cy="22" r="22"/>
<g>
	<path class="st1" d="M27.67,27.03c-0.71,0-1.3-0.16-1.82-0.5c-0.25-0.16-0.46-0.38-0.68-0.62c-0.11-0.12-0.22-0.23-0.34-0.35
		c-0.09-0.08-0.19-0.18-0.32-0.2c-0.81-0.09-1.53-0.39-2.14-0.9c-0.09-0.07-0.17-0.11-0.25-0.11c-0.1,0-0.18,0.05-0.25,0.09
		c-0.46,0.31-0.99,0.49-1.62,0.55c-0.07,0.01-0.15,0.01-0.22,0.02c-0.13,0.01-0.26,0.02-0.4,0.04c-0.13,0.02-0.26,0.11-0.33,0.2
		c-0.34,0.47-0.8,0.76-1.45,0.93c-0.37,0.09-0.74,0.14-1.09,0.14c-0.65,0-1.29-0.16-1.9-0.47c-1.04-0.54-1.7-1.42-1.92-2.54
		c-0.3-1.55,0.06-2.89,1.08-3.99c0.63-0.68,1.44-1.15,2.47-1.45c0.47-0.14,0.97-0.2,1.59-0.2c0.14,0,0.29,0,0.45,0.01
		c0.02,0,0.03,0,0.05,0c0.09,0,0.2-0.01,0.28-0.09c0.06-0.07,0.09-0.16,0.09-0.31c-0.02-0.61-0.02-1.25,0-1.94
		c0.01-0.27,0.04-0.58,0.26-0.84c0.22-0.26,0.52-0.41,0.93-0.43l0.07,0c0.19-0.01,0.38-0.02,0.57-0.02c0.42,0,0.73,0.06,1.01,0.2
		c0.16,0.08,0.94,0.08,0.95,0.08c0.08,0,0.14,0,0.18-0.01c0.26-0.03,0.5-0.04,0.71-0.04c0.44,0,0.83,0.06,1.19,0.18
		c0.47,0.16,0.76,0.59,0.77,1.13c0,0.16,0,0.33,0,0.49l0,0.32l0.01,0l-0.01,0.3c-0.01,0.31-0.03,0.62-0.04,0.93
		c-0.02,0.42,0.02,0.46,0.43,0.51c1.22,0.13,2.32,0.59,3.37,1.41c0.92,0.72,1.52,1.55,1.82,2.53c0.42,1.37,0.23,2.61-0.56,3.68
		c-0.49,0.66-1.2,1.06-2.1,1.2C28.21,27,27.94,27.03,27.67,27.03z M27.41,20.89c0.34,0,0.65,0.15,0.83,0.39
		c0.4,0.55,0.51,1.15,0.32,1.79c-0.24,0.81-0.74,1.42-1.48,1.83c-0.21,0.12-0.44,0.22-0.66,0.32c-0.1,0.05-0.21,0.09-0.31,0.14
		l-0.09,0.04l0.04,0.09c0.31,0.75,0.79,1.16,1.46,1.25c0.15,0.02,0.3,0.03,0.44,0.03c0,0,0,0,0,0c0.52,0,1.03-0.13,1.53-0.4
		c0.91-0.48,1.45-1.3,1.59-2.43c0.18-1.37-0.26-2.6-1.31-3.65c-0.28-0.29-0.6-0.53-0.95-0.79c-0.78-0.59-1.71-0.93-2.92-1.09
		c-0.03,0-0.06-0.01-0.09-0.01c-0.09,0-0.16,0.02-0.21,0.07c-0.07,0.07-0.08,0.18-0.08,0.29c0,0.5,0,1.01,0,1.5l0,0.49
		c0,0.23,0,0.47,0,0.7c-0.01,0.53-0.01,1.08,0.01,1.61c0.02,0.35,0.07,0.7,0.12,1.04c0.03,0.2,0.06,0.4,0.08,0.6
		c0.03,0.22,0.13,0.33,0.3,0.33c0.06,0,0.12-0.01,0.2-0.04c0.63-0.19,1.17-0.57,1.65-1.17c0.31-0.38,0.28-0.75-0.07-1.04
		c-0.16-0.13-0.33-0.23-0.47-0.32c-0.07-0.04-0.14-0.08-0.21-0.12c-0.09-0.05-0.17-0.09-0.25-0.14c-0.16-0.11-0.27-0.28-0.3-0.48
		c-0.03-0.21,0.03-0.43,0.18-0.61C26.91,20.99,27.15,20.89,27.41,20.89z M18,17.95c-0.56,0-1.15,0.03-1.74,0.26
		c-0.76,0.29-1.85,0.8-2.5,1.84c-0.7,1.11-0.86,2.37-0.46,3.63c0.26,0.85,0.75,1.46,1.47,1.88c0.49,0.28,1,0.45,1.57,0.53
		c0.07,0.01,0.14,0.01,0.21,0.01c0.69,0,1.38-0.39,1.64-0.93c0.04-0.07,0.07-0.16,0.03-0.24c-0.03-0.09-0.12-0.13-0.19-0.16
		c-0.88-0.35-1.52-0.91-1.91-1.67c-0.32-0.62-0.6-1.36-0.22-2.17c0.2-0.44,0.5-0.67,0.9-0.7c0.02,0,0.04,0,0.07,0
		c0.34,0,0.62,0.19,0.83,0.58c0.07,0.14,0.09,0.29,0.04,0.43c-0.05,0.14-0.15,0.26-0.3,0.33c-0.07,0.03-0.15,0.06-0.23,0.09
		c-0.11,0.04-0.23,0.09-0.34,0.15c-0.36,0.2-0.56,0.4-0.62,0.64c-0.06,0.23,0.01,0.48,0.2,0.78c0.41,0.64,0.98,1.08,1.68,1.32
		c0.06,0.02,0.12,0.04,0.17,0.04c0.16,0,0.21-0.16,0.23-0.23c0.25-0.82,0.3-1.67,0.32-2.39c0.01-0.67,0.02-1.34,0.02-1.98
		c0-0.43,0-0.86,0-1.3c0-0.2,0-0.4,0-0.61v-0.1l-0.1,0c-0.09,0-0.19,0-0.28,0C18.33,17.95,18.16,17.95,18,17.95z M23.87,18.57
		c-0.16,0-0.27,0.04-0.34,0.11c-0.08,0.08-0.12,0.2-0.11,0.38c0,0.32-0.07,0.6-0.2,0.85c-0.06,0.1-0.06,0.27-0.01,0.38
		c0.25,0.6,0.33,1.14,0.25,1.66c-0.13,0.86-0.42,1.47-0.9,1.93c-0.05,0.05-0.06,0.13-0.06,0.18c0,0.04,0.01,0.15,0.07,0.2
		c0.54,0.48,1.21,0.69,1.84,0.84l0.15,0.04l-0.02-0.15c-0.01-0.04-0.01-0.07-0.01-0.1c-0.01-0.05-0.01-0.1-0.03-0.14
		c-0.22-0.62-0.33-1.31-0.35-2.11c-0.02-0.81,0-1.64,0.01-2.45c0.01-0.45,0.01-0.92,0.02-1.38c0-0.11-0.14-0.26-0.26-0.26
		C23.89,18.57,23.88,18.57,23.87,18.57z M20.33,18.43c-0.01,0.09-0.02,0.18-0.03,0.27c-0.02,0.18-0.04,0.36-0.04,0.53
		c-0.01,0.51-0.02,1.04-0.03,1.54c-0.01,0.52-0.02,1.06-0.03,1.58c0,0.18-0.04,0.37-0.07,0.55l0,0.01c-0.1,0.57-0.2,1.08-0.44,1.55
		c-0.05,0.1-0.06,0.19-0.02,0.26c0.02,0.03,0.07,0.09,0.18,0.09c0.03,0,0.07-0.01,0.11-0.02c0.1-0.02,0.2-0.04,0.31-0.05
		c0.05-0.01,0.1-0.01,0.15-0.02c0.51-0.07,0.97-0.26,1.42-0.6l0.09-0.06l-0.07-0.08c-0.04-0.05-0.09-0.1-0.13-0.15
		c-0.08-0.1-0.16-0.19-0.22-0.29c-0.66-1.14-0.77-2.24-0.33-3.37c0.03-0.07,0.07-0.19,0.03-0.27c-0.12-0.24-0.12-0.5-0.12-0.77
		c0-0.12,0-0.24-0.01-0.35c-0.01-0.13-0.11-0.29-0.22-0.35c-0.09-0.05-0.2-0.07-0.31-0.08c-0.05-0.01-0.1-0.01-0.14-0.02l-0.11-0.02
		L20.33,18.43z M21.6,20.48c-0.07,0-0.23,0.03-0.27,0.27c-0.01,0.08-0.02,0.16-0.04,0.23c-0.03,0.21-0.07,0.43-0.06,0.64
		c0.03,0.77,0.26,1.46,0.69,2.03c0.06,0.08,0.13,0.16,0.23,0.16c0.1,0,0.17-0.07,0.23-0.15c0.5-0.56,0.74-1.25,0.77-2.17l0-0.01
		l0-0.01c-0.01-0.04-0.01-0.09-0.02-0.15c-0.02-0.17-0.04-0.37-0.09-0.58c-0.02-0.11-0.18-0.25-0.28-0.25c-0.02,0-0.03,0-0.04,0.01
		c-0.14,0.05-0.29,0.08-0.45,0.08c-0.17,0-0.35-0.03-0.57-0.09C21.67,20.49,21.64,20.48,21.6,20.48z M23.4,17.88
		c-0.03,0.1-0.06,0.24,0.01,0.33c0.05,0.06,0.12,0.1,0.23,0.1h0c0.04,0,0.09,0,0.14-0.02c0.36-0.07,0.46-0.14,0.42-0.54
		c-0.01-0.16-0.03-0.32-0.02-0.47c0.01-0.49,0.02-0.99,0.04-1.47l0.01-0.4c0-0.05,0-0.1,0-0.14c0-0.1-0.01-0.2,0.02-0.29
		c0.04-0.13,0.03-0.23-0.02-0.32c-0.05-0.09-0.15-0.14-0.29-0.18c-0.04-0.01-0.07-0.01-0.1-0.01c-0.22,0-0.37,0.16-0.37,0.4
		c-0.02,0.74-0.03,1.48-0.04,2.22L23.4,17.88z M20.74,14.23c-0.02,0-0.04,0-0.06,0c-0.33,0.02-0.33,0.29-0.33,0.47
		c0,0.42-0.01,0.84-0.02,1.25c-0.01,0.4-0.02,0.82-0.02,1.23c0,0.13,0,0.23-0.01,0.32c-0.02,0.42,0.01,0.46,0.4,0.59
		c0.06,0.02,0.14,0.05,0.23,0.08c0.01,0,0.03,0.01,0.04,0.01c0,0,0,0,0,0c0.02,0,0.04,0,0.05-0.01c0.01,0,0.02-0.01,0.03-0.01
		l0.07-0.01l0.01-0.07c0-0.02,0.01-0.03,0.01-0.05c0.01-0.04,0.02-0.09,0.02-0.15c0.02-1.21,0.04-2.22,0.05-3.17
		c0-0.14-0.04-0.25-0.12-0.34C21.02,14.28,20.89,14.23,20.74,14.23z"/>
	<g>
		<path class="st1" d="M36.93,24.24c0.12,0.13,0.18,0.24,0.27,0.27c0.06,0.02,0.22-0.06,0.23-0.13c0.03-0.11,0.01-0.25-0.04-0.35
			c-0.05-0.09-0.17-0.15-0.24-0.25c0.21,0.02,0.39,0.13,0.45,0.32c0.04,0.14,0.02,0.34-0.06,0.44c-0.07,0.09-0.27,0.15-0.4,0.12
			c-0.11-0.02-0.21-0.17-0.29-0.28C36.82,24.38,36.91,24.28,36.93,24.24z"/>
		<path class="st1" d="M39.39,27.02c-0.05,0.05-0.09,0.11-0.14,0.14c-0.11,0.07-0.23,0.14-0.36,0.19c-0.06,0.02-0.18,0-0.2-0.03
			c-0.03-0.07-0.02-0.21,0.01-0.23c0.19-0.08,0.39-0.13,0.59-0.18C39.32,26.91,39.35,26.97,39.39,27.02z"/>
		<path class="st1" d="M39.3,24.34c0.1,0.05,0.15,0.05,0.17,0.08c0.1,0.12,0.2,0.25,0.28,0.39c0.03,0.04-0.01,0.12-0.01,0.17
			c-0.05-0.01-0.11-0.01-0.15-0.04c-0.13-0.11-0.26-0.23-0.36-0.36C39.21,24.54,39.27,24.43,39.3,24.34z"/>
		<path class="st1" d="M39.84,20.61c-0.2,0.2-0.34,0.34-0.5,0.47c-0.02,0.01-0.17-0.07-0.16-0.1c0.01-0.09,0.05-0.2,0.11-0.26
			c0.08-0.08,0.2-0.13,0.31-0.18C39.64,20.53,39.71,20.57,39.84,20.61z"/>
		<path class="st1" d="M37.53,31.04c-0.08-0.17-0.19-0.34-0.24-0.53c-0.02-0.06,0.1-0.16,0.16-0.24c0.06,0.08,0.14,0.15,0.18,0.23
			c0.04,0.09,0.04,0.2,0.04,0.3c0,0.08-0.03,0.15-0.04,0.23C37.59,31.03,37.56,31.03,37.53,31.04z"/>
		<g>
			<path class="st1" d="M35.76,26.16c-0.4,0.91-0.79,1.79-1.19,2.71c0.15-0.07,0.28-0.12,0.4-0.18c1.02-0.49,2.01-0.44,2.97,0.17
				c0.81,0.51,1.24,1.66,0.92,2.47c-0.17,0.43-0.48,0.72-0.89,0.91c-0.14,0.07-0.19,0.14-0.2,0.31c-0.02,0.88-0.75,1.61-1.63,1.67
				c-1.41,0.09-2.66-0.89-2.87-2.27c-0.06-0.41-0.01-0.85-0.01-1.27c-0.71,0.67-1.42,1.33-2.15,2.01c0.36,0,0.72-0.03,1.07,0.01
				c1.37,0.15,2.58,1.22,2.52,2.64c-0.04,0.96-0.64,1.64-1.63,1.71c-0.25,0.02-0.42,0.07-0.57,0.33c-0.4,0.71-1.34,1.02-2.15,0.76
				c-1.11-0.35-1.72-1.13-1.87-2.26c-0.09-0.63,0.15-1.21,0.47-1.74c0.04-0.07,0.08-0.14,0.13-0.22c-0.97,0.35-1.91,0.68-2.88,1.03
				c0.61,0.09,1.11,0.36,1.58,0.72c0.97,0.76,1.4,2.36,0.5,3.41c-0.43,0.51-1.39,0.81-2.16,0.53c-0.1-0.04-0.27-0.04-0.34,0.02
				c-1.16,0.9-2.59,0.28-3.19-0.74c-0.62-1.06-0.3-2.48,0.72-3.21c0.16-0.11,0.31-0.23,0.49-0.37c-1.06-0.04-2.08-0.08-3.14-0.12
				c0.14,0.12,0.26,0.23,0.38,0.32c0.7,0.48,1.35,1.81,1.03,2.87c-0.47,1.57-2.26,1.96-3.28,1.13c-0.14-0.11-0.25-0.24-0.51-0.16
				c-0.89,0.27-1.78-0.09-2.29-0.88c-0.66-1-0.38-2.42,0.58-3.13c0.52-0.38,1.08-0.6,1.79-0.64c-1.05-0.43-2.02-0.84-3.02-1.25
				c0.04,0.07,0.07,0.15,0.11,0.22c0.39,0.7,0.64,1.44,0.4,2.25c-0.23,0.79-0.68,1.41-1.5,1.65c-1.01,0.3-2.08,0.01-2.62-1
				c-0.05-0.09-0.17-0.17-0.27-0.18c-0.49-0.08-0.92-0.25-1.28-0.59c-0.76-0.72-0.8-2.05-0.11-2.84c0.55-0.63,1.24-0.95,2.06-0.97
				c0.37-0.01,0.74,0,1.06,0c-0.7-0.69-1.44-1.43-2.21-2.19c0.01,0.13,0.01,0.25,0.02,0.36c0.16,1.35-0.25,2.29-1.52,2.95
				c-0.31,0.16-0.67,0.21-1.02,0.12c-0.41-0.11-0.85-0.15-1.21-0.36c-0.54-0.31-0.85-0.83-0.87-1.48c-0.01-0.16-0.07-0.24-0.21-0.31
				C5.7,30.8,5.3,30.42,5.18,29.81c-0.15-0.81,0.12-1.48,0.72-1.99c0.64-0.54,1.4-0.66,2.23-0.54c0.51,0.07,0.96,0.25,1.38,0.54
				c0.05,0.03,0.11,0.04,0.17,0.07c-0.4-0.97-0.8-1.92-1.21-2.9c-0.07,0.21-0.13,0.43-0.21,0.63c-0.43,1.11-1.33,1.68-2.51,1.78
				c-0.11,0.01-0.23-0.01-0.32-0.05c-0.42-0.17-0.86-0.32-1.25-0.55c-0.65-0.38-0.93-1.28-0.62-2.02c0.07-0.16,0.05-0.25-0.06-0.38
				c-1.04-1.17-0.29-2.62,0.95-3.01c1.21-0.38,2.22-0.02,3.1,0.83c0.17,0.16,0.29,0.36,0.43,0.54c0.03-0.01,0.05-0.02,0.08-0.03
				c-0.02-0.14-0.05-0.29-0.05-0.43c-0.01-0.26,0.01-0.51-0.01-0.77c-0.02-0.24-0.08-0.48-0.08-0.73c0-0.27,0.04-0.54,0.06-0.81
				c0.01-0.07,0.02-0.14,0.04-0.29c-0.13,0.14-0.22,0.22-0.29,0.31c-0.59,0.75-1.37,1.13-2.31,1.08c-1.04-0.06-1.9-0.48-2.32-1.51
				c-0.26-0.66-0.18-1.28,0.35-1.81c0.08-0.08,0.13-0.26,0.09-0.35c-0.3-0.73,0.03-1.53,0.62-1.97c0.88-0.64,2.1-0.61,3.02,0.09
				c0.62,0.47,1.01,1.09,1.16,1.86c0.01,0.03,0.02,0.06,0.03,0.1c0.01,0.02,0.02,0.04,0.03,0.05c0.41-0.87,0.81-1.73,1.23-2.62
				C9.49,15,9.34,15.05,9.19,15.11c-1.15,0.5-2.24,0.33-3.17-0.46c-0.58-0.48-0.94-1.16-0.77-1.97c0.12-0.57,0.48-0.98,1.02-1.21
				c0.19-0.08,0.29-0.16,0.28-0.39c-0.03-0.48,0.66-1.33,1.31-1.48c1.55-0.36,3.1,0.7,3.24,2.25c0.03,0.35-0.03,0.7-0.04,1.06
				c0,0.05,0,0.09,0.01,0.19c0.38-0.37,0.72-0.72,1.09-1.04c0.36-0.32,0.74-0.62,1.18-0.99c-0.29,0-0.51,0-0.73,0
				c-1.14-0.01-2.05-0.48-2.62-1.48c-0.5-0.88-0.31-2.11,0.7-2.59c0.24-0.11,0.52-0.14,0.79-0.17c0.18-0.02,0.3-0.05,0.38-0.23
				c0.3-0.69,1.41-1.03,2.04-0.89c0.45,0.1,0.87,0.26,1.2,0.57c0.74,0.67,1.03,1.51,0.77,2.49c-0.1,0.39-0.31,0.75-0.45,1.08
				c0.86-0.3,1.77-0.61,2.69-0.93c-0.24-0.1-0.49-0.19-0.73-0.3c-0.87-0.41-1.43-1.07-1.64-2.02c-0.12-0.56,0.01-1.07,0.32-1.52
				c0.37-0.53,0.9-0.81,1.54-0.81c0.24,0,0.48,0.1,0.72,0.14c0.1,0.02,0.24,0.03,0.3-0.02c0.74-0.66,1.73-0.53,2.41-0.08
				c0.69,0.46,1.07,1.11,1.07,1.95c0,0.94-0.43,1.66-1.23,2.15c-0.07,0.04-0.13,0.09-0.22,0.14c1.01,0.06,1.98,0.12,2.98,0.18
				c-0.14-0.13-0.26-0.24-0.38-0.35c-0.61-0.58-1.05-1.24-1.03-2.13c0.02-0.93,0.48-1.55,1.3-1.89c0.79-0.32,1.5-0.15,2.14,0.39
				c0.07,0.06,0.22,0.09,0.31,0.07c1-0.29,2.09,0.33,2.43,1.2c0.37,0.95,0.21,1.82-0.49,2.54c-0.44,0.45-1.01,0.72-1.66,0.75
				c-0.03,0-0.06,0.01-0.08,0.01c0.9,0.41,1.79,0.82,2.68,1.23c-0.14-0.29-0.3-0.58-0.42-0.88c-0.5-1.33,0.25-2.71,1.51-3.01
				c0.94-0.23,1.95,0.17,2.41,1.03c0.05,0.09,0.16,0.17,0.26,0.19c0.41,0.1,0.82,0.19,1.16,0.47c0.38,0.31,0.56,0.73,0.66,1.18
				c0.29,1.28-0.83,2.39-1.88,2.49c-0.44,0.04-0.88,0.01-1.32,0.01c-0.06,0-0.12,0.01-0.18,0.01c0.67,0.67,1.34,1.34,2.02,2.02
				c-0.02-0.12-0.04-0.24-0.05-0.37c-0.04-0.72,0.07-1.39,0.57-1.96c0.38-0.43,0.86-0.7,1.42-0.76c0.78-0.08,1.49,0.12,2.04,0.72
				c0.27,0.3,0.44,0.65,0.48,1.05c0.02,0.19,0.12,0.28,0.26,0.37c0.61,0.38,0.99,0.9,1,1.64c0.01,0.91-0.62,1.63-1.51,1.92
				c-0.98,0.32-1.81-0.01-2.63-0.46c-0.04-0.02-0.09-0.05-0.16-0.09c0.39,0.92,0.77,1.81,1.16,2.73c0.03-0.11,0.06-0.22,0.09-0.32
				c0.29-1.07,0.99-1.68,2.09-1.89c1.18-0.22,2.38,0.58,2.62,1.69c0.06,0.28-0.04,0.6-0.05,0.9c0,0.1,0.01,0.23,0.07,0.3
				c0.46,0.57,0.66,1.2,0.36,1.9c-0.27,0.64-0.79,1.02-1.49,1.11c-1.22,0.16-2.22-0.24-2.97-1.23c-0.06-0.07-0.12-0.15-0.22-0.19
				c0,0.94,0,1.87,0,2.87c0.13-0.14,0.24-0.25,0.33-0.36c0.96-1.1,2.64-1.17,3.64-0.38c0.63,0.5,0.99,1.17,0.85,1.99
				c-0.05,0.27-0.27,0.51-0.41,0.78c-0.05,0.09-0.11,0.22-0.08,0.3c0.43,1.19-0.36,2.25-1.52,2.37c-0.99,0.1-1.82-0.24-2.48-0.99
				c-0.36-0.41-0.57-0.89-0.69-1.41C35.81,26.28,35.79,26.23,35.76,26.16z M30.43,8.34L30.43,8.34c0.03,0.4,0.19,0.71,0.59,0.86
				c0.16,0.06,0.2,0.03,0.18-0.14c-0.04-0.38,0.22-0.89,0.54-1.05c0.32-0.17,0.33-0.2,0.1-0.49c-0.04-0.05-0.09-0.08-0.13-0.13
				c-0.38-0.4-0.88-0.42-1.38-0.39c-0.54,0.03-0.98,0.27-1.32,0.68c-0.4,0.5-0.4,1.08-0.28,1.67c0.03,0.15,0.06,0.3,0.1,0.51
				c0.07-0.1,0.09-0.14,0.11-0.17c0.24-0.38,0.74-0.4,0.95-0.01c0.07,0.12,0.04,0.36-0.04,0.49c-0.05,0.08-0.27,0.08-0.41,0.07
				c-0.05,0-0.08-0.16-0.12-0.24c0.05-0.02,0.11-0.04,0.16-0.05c0.07-0.02,0.14-0.03,0.2-0.04c-0.04-0.07-0.06-0.18-0.12-0.21
				c-0.24-0.12-0.5,0.05-0.52,0.34c-0.02,0.28,0.12,0.49,0.29,0.69c0.5,0.62,1.16,0.93,1.93,1.01c0.33,0.04,0.56-0.24,0.47-0.54
				c-0.03-0.09-0.13-0.19-0.21-0.21c-0.07-0.02-0.17,0.07-0.28,0.12c0.11,0.1,0.18,0.15,0.24,0.21c0,0.02,0,0.05-0.01,0.07
				c-0.09,0-0.22,0.04-0.26-0.01c-0.08-0.09-0.16-0.23-0.15-0.33c0.03-0.2,0.18-0.32,0.4-0.32c0.23,0.01,0.4,0.12,0.49,0.34
				c0.12,0.27,0.03,0.5-0.17,0.74c0.31-0.02,0.61-0.05,0.89-0.12c0.6-0.15,1.12-0.45,1.34-1.06c0.26-0.73,0.15-1.42-0.42-1.97
				C33.32,8.4,33,8.19,32.59,8.26c0.04,0.72-0.45,1.02-1.02,1.22c0.29,0.44,0.66,0.53,1.13,0.34c0.03-0.23,0.06-0.45,0.09-0.74
				c0.12,0.08,0.26,0.13,0.27,0.19c0.03,0.19,0.01,0.39,0,0.59c0,0.02-0.03,0.04-0.06,0.05c-0.15,0.07-0.3,0.14-0.46,0.2
				c-0.4,0.16-0.82-0.01-1.15-0.43c-0.08-0.1-0.23-0.19-0.37-0.21c-0.49-0.07-0.83-0.61-0.78-0.99C30.26,8.41,30.26,8.26,30.43,8.34
				z M5.38,18.18c0.15-0.17,0.06-0.33-0.07-0.41c-0.18-0.12-0.4-0.24-0.61-0.24c-0.21-0.01-0.49-0.04-0.65,0.21
				c0.03,0.04,0.04,0.08,0.07,0.11C4.47,18.2,4.9,18.28,5.38,18.18c-0.07,0.05-0.14,0.13-0.22,0.15c-0.44,0.11-0.84,0.04-1.19-0.26
				C3.9,18.01,3.72,17.97,3.69,18c-0.14,0.16-0.31,0.34-0.36,0.54c-0.22,0.73,0.21,1.54,0.86,1.93c0.91,0.56,1.83,0.49,2.73-0.03
				c0.11-0.07,0.21-0.17,0.33-0.27C7.04,20.1,6.88,20.07,6.75,20c-0.2-0.1-0.3-0.3-0.25-0.51c0.03-0.13,0.14-0.27,0.26-0.33
				c0.17-0.1,0.34-0.01,0.47,0.14c0.13,0.15,0.05,0.24-0.06,0.32C7.1,19.49,7.07,19.36,7,19.32c-0.06-0.04-0.24,0-0.26,0.05
				c-0.05,0.1-0.04,0.24-0.02,0.35c0.01,0.06,0.09,0.13,0.15,0.16c0.28,0.14,0.59,0.08,0.82-0.13c0.54-0.51,0.83-2.05,0.27-2.59
				c-0.02-0.02-0.05-0.07-0.04-0.09c0.11-0.32-0.13-0.5-0.28-0.71c-0.69-0.98-1.77-1.33-2.89-0.89c-0.69,0.28-1.1,0.98-0.94,1.64
				c0.05,0.23,0.17,0.27,0.36,0.22c0.55-0.15,0.96,0.1,1.32,0.47c0.16,0.17,0.25,0.09,0.31-0.03c0.11-0.24,0.2-0.49,0.03-0.75
				c-0.04-0.07-0.07-0.14-0.12-0.23c0.43,0.13,0.44,0.82,0.18,1.13c-0.12,0.14-0.14,0.26-0.08,0.41c0.12,0.36-0.03,0.63-0.3,0.85
				c-0.05,0.04-0.12,0.04-0.21,0.07c0.13-0.23,0.26-0.4,0.33-0.6C5.71,18.36,5.64,18.25,5.38,18.18z M36.01,22.53
				c-0.08-0.61-0.12-1.24-0.24-1.84c-0.12-0.64-0.32-1.26-0.49-1.89c-0.29-1.07-0.79-2.04-1.37-2.97c-0.35-0.57-0.75-1.12-1.19-1.62
				c-0.54-0.62-1.12-1.22-1.74-1.76c-0.51-0.45-1.11-0.8-1.67-1.2c-0.91-0.64-1.93-1.08-2.97-1.46c-0.73-0.27-1.49-0.46-2.26-0.59
				c-0.84-0.15-1.7-0.24-2.55-0.26c-0.7-0.02-1.41,0.04-2.11,0.14c-0.8,0.12-1.61,0.27-2.38,0.51c-1.2,0.37-2.32,0.91-3.36,1.62
				c-1.12,0.77-2.1,1.67-2.93,2.72c-0.84,1.06-1.5,2.23-1.94,3.53c-0.37,1.09-0.59,2.19-0.59,3.34c0,0.59,0.03,1.17,0.1,1.76
				c0.06,0.59,0.14,1.18,0.28,1.75c0.31,1.21,0.78,2.36,1.39,3.46c0.5,0.91,1.13,1.72,1.82,2.48c0.82,0.9,1.75,1.68,2.78,2.35
				c1.44,0.93,2.97,1.63,4.65,1.98c0.7,0.15,1.4,0.3,2.11,0.37c1,0.1,2.01,0.06,3.02-0.02c1.27-0.11,2.49-0.45,3.66-0.9
				c1.96-0.76,3.64-1.97,5.03-3.56c0.96-1.1,1.69-2.34,2.19-3.7C35.75,25.41,35.96,23.99,36.01,22.53z M4.03,24.51
				c0.2,0.18,0.43,0.24,0.67,0.22c0.22-0.02,0.44-0.06,0.66-0.1c0,0.01,0,0.02-0.01,0.04c-0.02,0.02-0.03,0.04-0.05,0.05
				c-0.37,0.25-0.77,0.34-1.2,0.16c-0.17-0.07-0.26-0.04-0.28,0.15c-0.01,0.09-0.04,0.18-0.05,0.27c-0.04,0.63,0.23,1.09,0.76,1.42
				c0.48,0.3,0.99,0.46,1.55,0.41c0.79-0.07,1.33-0.55,1.75-1.18c0.05-0.08,0.07-0.18,0.12-0.31c-0.35,0.11-0.63,0.07-0.85-0.17
				c-0.22-0.25-0.12-0.62,0.21-0.67c0.12-0.02,0.27,0.09,0.39,0.17c0.03,0.02-0.01,0.14-0.01,0.21c-0.14-0.14-0.19-0.32-0.4-0.2
				c-0.16,0.1-0.18,0.26-0.07,0.4c0.11,0.15,0.27,0.25,0.47,0.18c0.3-0.09,0.49-0.31,0.56-0.61c0.18-0.76-0.02-1.45-0.42-2.09
				c-0.2-0.32-0.53-0.45-0.83-0.33c-0.12,0.05-0.23,0.21-0.27,0.35c-0.02,0.07,0.08,0.22,0.17,0.27c0.15,0.09,0.24-0.06,0.32-0.17
				c0.01-0.01,0.03-0.01,0.05-0.01c0.1,0.18,0,0.34-0.23,0.36c-0.25,0.02-0.51-0.18-0.53-0.42c-0.02-0.27,0.26-0.54,0.56-0.55
				c0.07,0,0.14-0.01,0.21-0.01c0.01-0.04,0.02-0.07,0.03-0.11c-0.29-0.18-0.57-0.39-0.88-0.53c-0.94-0.45-2.09-0.26-2.75,0.55
				c-0.43,0.52-0.49,1.2-0.13,1.75c0.16,0.25,0.22,0.26,0.47,0.1c0.11-0.07,0.24-0.14,0.37-0.18c0.32-0.1,0.68-0.04,0.85,0.15
				C4.78,24.08,4.33,24.07,4.03,24.51z M7.92,12.53C7.55,12.68,6.93,12.4,6.67,12c-0.21-0.32-0.22-0.32-0.55-0.11
				C6,11.97,5.88,12.08,5.79,12.2c-0.44,0.66-0.2,1.79,0.43,2.31c0.65,0.54,1.39,0.66,2.18,0.58c0.2-0.02,0.53,0.09,0.57-0.29
				c0.66,0,1.09-0.37,1.45-0.85c0.26-0.35,0.45-0.74,0.45-1.2c0-0.36-0.33-0.63-0.67-0.56c-0.09,0.02-0.18,0.1-0.22,0.18
				c-0.03,0.06,0.01,0.21,0.05,0.23c0.11,0.03,0.23,0.01,0.37,0.01c0.05,0.15-0.05,0.28-0.25,0.26c-0.22-0.02-0.4-0.23-0.4-0.45
				c0-0.24,0.15-0.38,0.39-0.41c0.28-0.04,0.49,0.06,0.71,0.25c0-0.22-0.04-0.42-0.08-0.62c-0.27-1.43-1.7-2.09-3-1.66
				c-0.59,0.2-1.01,0.77-0.9,1.27c0.03,0.01,0.08,0.01,0.12,0.02c0.53,0.08,0.95,0.31,1.18,0.82c0.15,0.34,0.21,0.35,0.46,0.05
				c0.07-0.08,0.13-0.19,0.14-0.29c0.02-0.17,0.01-0.34,0.01-0.52c0.36,0.33,0.18,0.91-0.31,1.17c-0.09,0.05-0.15,0.16-0.2,0.26
				c-0.04,0.08-0.04,0.18-0.07,0.27c-0.13,0.34-0.61,0.54-0.9,0.38c0.03-0.02,0.05-0.05,0.08-0.06c0.55-0.14,0.6-0.26,0.66-0.83
				c0.02-0.27-0.01-0.49-0.2-0.64c-0.18-0.14-0.41-0.22-0.63-0.28c-0.1-0.03-0.23,0.04-0.35,0.07c0.06,0.12,0.1,0.25,0.17,0.36
				C7.24,12.33,7.55,12.48,7.92,12.53z M10.36,30.2c-0.19,0-0.35-0.05-0.42,0.01c-0.15,0.13-0.05,0.28,0.06,0.4
				c0.04,0.04,0.12,0.07,0.18,0.07c0.45,0.04,0.7-0.28,0.62-0.69c-0.19-1.01-0.68-1.78-1.73-2.09c-0.03-0.01-0.05-0.04-0.08-0.06
				c-0.1-0.08-0.19-0.2-0.3-0.22c-0.28-0.06-0.57-0.09-0.85-0.12c-0.87-0.09-1.59,0.18-2.09,0.93c-0.46,0.68-0.36,1.88,0.42,2.28
				c0.16,0.08,0.26,0.1,0.37-0.08c0.21-0.33,0.52-0.53,0.92-0.56c0.17-0.01,0.34-0.02,0.53-0.04c0.05-0.53-0.34-0.71-0.79-0.87
				c0.47-0.15,1,0.44,1,0.77c0,0.17,0.08,0.25,0.21,0.34c0.25,0.16,0.45,0.37,0.48,0.68c0.02,0.17,0.04,0.35-0.2,0.49
				c0.07-0.49,0-0.88-0.46-1.1c-0.03,0.02-0.06,0.04-0.06,0.06c-0.23,0.58-0.63,0.91-1.27,0.92c-0.15,0-0.21,0.11-0.16,0.23
				c0.1,0.26,0.18,0.56,0.36,0.74c1.11,1.12,2.95,0.73,3.48-0.63c0.13-0.33,0.23-0.68,0.2-1.09c-0.08,0.06-0.11,0.09-0.15,0.12
				c-0.24,0.19-0.56,0.2-0.8,0.02c-0.16-0.12-0.25-0.28-0.16-0.49c0.08-0.2,0.25-0.28,0.46-0.24C10.29,30,10.41,30.08,10.36,30.2z
				 M12.33,8.23c-0.44-0.2-0.57-0.56-0.63-0.96c-0.03-0.17-0.1-0.23-0.25-0.21c-0.35,0.04-0.68,0.16-0.93,0.42
				c-0.62,0.63-0.59,1.78,0.03,2.47c0.43,0.48,0.99,0.7,1.59,0.85c0.13,0.03,0.27,0.02,0.41,0.02c-0.05-0.11-0.11-0.21-0.16-0.32
				c-0.01-0.01-0.02-0.03-0.03-0.04c-0.12-0.18-0.09-0.36,0.04-0.49c0.1-0.1,0.27-0.18,0.41-0.19c0.19-0.01,0.33,0.12,0.38,0.32
				c0.06,0.21-0.05,0.32-0.23,0.29c0.01-0.12,0.05-0.25,0-0.32c-0.04-0.06-0.23-0.1-0.29-0.05c-0.09,0.06-0.16,0.2-0.17,0.3
				c-0.03,0.36,0.32,0.59,0.77,0.51c0.48-0.08,0.96-0.18,1.33-0.51c0.24-0.21,0.49-0.46,0.64-0.74c0.19-0.37-0.16-0.82-0.54-0.75
				c-0.17,0.03-0.22,0.15-0.17,0.28c0.02,0.06,0.16,0.08,0.25,0.1c0.05,0.01,0.11,0,0.21,0c-0.13,0.21-0.26,0.32-0.47,0.21
				c-0.19-0.09-0.31-0.32-0.2-0.48c0.09-0.13,0.26-0.24,0.41-0.28c0.23-0.05,0.45,0.04,0.59,0.26c0.04,0.07,0.07,0.14,0.13,0.25
				c0.22-0.51,0.29-0.99,0.18-1.47c-0.08-0.33-0.22-0.67-0.42-0.93c-0.38-0.5-0.92-0.73-1.56-0.79c-0.61-0.05-1.1,0.08-1.44,0.62
				c-0.08,0.13-0.06,0.22,0.08,0.28c0.52,0.23,0.75,0.66,0.74,1.2c-0.01,0.27,0.1,0.24,0.27,0.2c0.35-0.08,0.5-0.36,0.63-0.67
				c0.03,0.12,0.06,0.24,0.02,0.34c-0.14,0.33-0.4,0.48-0.75,0.52c-0.13,0.02-0.28,0.11-0.36,0.21c-0.26,0.33-0.73,0.48-1.1,0.22
				c0.2-0.01,0.4-0.01,0.61-0.05c0.29-0.04,0.41-0.3,0.25-0.56c0.21,0.02,0.35-0.06,0.3-0.28c-0.08-0.34-0.23-0.64-0.57-0.8
				c-0.09-0.04-0.2-0.05-0.31-0.08c-0.01,0.12-0.07,0.26-0.03,0.36C12.06,7.73,12.19,7.95,12.33,8.23z M12.82,32.66
				c0.07,0.02,0.16,0.02,0.22,0.06c0.14,0.11,0.13,0.41-0.03,0.48c-0.14,0.06-0.35,0.11-0.47,0.05c-0.14-0.08-0.29-0.28-0.3-0.43
				c-0.01-0.19,0.13-0.38,0.21-0.59c0,0-0.04-0.03-0.08-0.02c-0.29,0.05-0.59,0.08-0.88,0.16c-0.98,0.28-1.66,1.06-1.49,2.18
				c0.11,0.73,0.6,1.28,1.26,1.42c0.18,0.04,0.28,0.03,0.3-0.2c0.04-0.5,0.38-0.78,0.81-0.97c0.09-0.04,0.19-0.09,0.28-0.13
				c-0.08-0.11-0.14-0.23-0.24-0.31c-0.07-0.07-0.18-0.11-0.27-0.13c-0.2-0.03-0.4-0.02-0.6-0.03c-0.01-0.06,0.04-0.08,0.09-0.1
				c0.39-0.2,0.9-0.02,1.18,0.39c0.06,0.09,0.18,0.17,0.29,0.22c0.16,0.07,0.35,0.09,0.5,0.18c0.34,0.2,0.46,0.67,0.24,1.01
				c-0.08-0.51-0.22-0.93-0.82-0.99c0.03,0.69-0.19,1.25-0.95,1.49c0.15,0.19,0.25,0.36,0.39,0.49c0.38,0.37,0.86,0.41,1.36,0.39
				c0.81-0.04,1.64-0.63,1.74-1.43c0.05-0.38,0.05-0.78,0.04-1.17c-0.01-0.17-0.1-0.34-0.15-0.51c-0.02,0-0.05,0.01-0.07,0.01
				c-0.03,0.07-0.05,0.14-0.09,0.2c-0.11,0.2-0.29,0.28-0.51,0.26c-0.23-0.02-0.42-0.11-0.49-0.34c-0.07-0.2,0.05-0.39,0.26-0.45
				c0.18-0.05,0.27,0.02,0.34,0.15c-0.15,0.05-0.28,0.07-0.35,0.14c-0.04,0.03,0,0.23,0.05,0.25c0.12,0.05,0.27,0.09,0.4,0.06
				c0.23-0.06,0.38-0.41,0.25-0.64c-0.19-0.32-0.4-0.64-0.67-0.89c-0.44-0.41-0.98-0.65-1.59-0.65c-0.35,0-0.62,0.25-0.57,0.51
				c0.02,0.12,0.15,0.24,0.25,0.31c0.05,0.03,0.22-0.02,0.25-0.08C12.93,32.94,12.86,32.82,12.82,32.66z M36.91,23.8
				c-0.13,0.08-0.28,0.17-0.41,0.28c-0.39,0.34-0.53,0.82-0.55,1.31c-0.02,0.43-0.05,0.88,0.3,1.22c0.03,0.03,0.05,0.09,0.04,0.11
				c-0.12,0.17,0.02,0.29,0.09,0.42c0.61,1.12,1.93,1.61,3.03,1.12c0.66-0.29,0.99-0.94,0.83-1.61c-0.04-0.18-0.12-0.24-0.28-0.19
				c-0.5,0.14-0.9-0.06-1.27-0.37c-0.08-0.07-0.17-0.12-0.26-0.18c-0.06,0.11-0.15,0.21-0.17,0.33c-0.02,0.15,0.01,0.31,0.06,0.45
				c0.04,0.11,0.12,0.21,0.2,0.33c-0.39-0.09-0.61-0.59-0.42-0.94c0.15-0.27,0.27-0.5,0.17-0.84c-0.09-0.34,0.25-0.69,0.57-0.67
				c-0.51,0.58-0.55,0.88-0.15,1.05c-0.12,0.29,0.11,0.4,0.29,0.51c0.29,0.18,0.75,0.14,0.99-0.07c-0.29-0.44-0.75-0.47-1.22-0.51
				c0.14-0.07,0.28-0.12,0.42-0.14c0.44-0.06,0.77,0.19,1.09,0.44c0.35-0.32,0.5-0.84,0.37-1.29c-0.53-1.77-2.48-1.9-3.66-0.99
				C36.93,23.61,36.93,23.71,36.91,23.8z M40.1,19.12c0.17-0.6,0.08-1.1-0.32-1.51c-0.63-0.63-1.39-0.85-2.24-0.58
				c-0.63,0.2-1.07,0.64-1.38,1.27c0.16-0.01,0.27-0.03,0.38-0.03c0.34,0,0.57,0.2,0.6,0.5c0.02,0.18-0.04,0.33-0.2,0.37
				c-0.13,0.03-0.3,0.02-0.43-0.04c-0.14-0.06-0.13-0.19,0-0.35c0.04,0.06,0.07,0.12,0.11,0.17c0.09,0.11,0.26,0.09,0.31-0.03
				c0.07-0.15-0.03-0.39-0.19-0.45c-0.28-0.1-0.62,0.06-0.71,0.34c-0.27,0.86-0.08,1.65,0.46,2.35c0.22,0.29,0.71,0.29,0.9,0.03
				c0.05-0.07,0.05-0.2,0.01-0.27c-0.04-0.08-0.18-0.17-0.23-0.15c-0.1,0.04-0.16,0.16-0.24,0.24c-0.15-0.19-0.08-0.39,0.17-0.42
				c0.22-0.03,0.45,0.1,0.52,0.32c0.07,0.21-0.05,0.5-0.25,0.58c-0.14,0.05-0.29,0.07-0.44,0.11c0.75,0.83,1.97,1.05,2.92,0.53
				c0.7-0.39,1.01-1.27,0.67-1.93c-0.21-0.42-0.25-0.43-0.64-0.2c-0.33,0.19-0.9,0.14-1.1-0.12c0.08,0.01,0.15,0.03,0.21,0.01
				c0.26-0.04,0.51-0.09,0.76-0.16c0.07-0.02,0.15-0.14,0.15-0.21c0-0.06-0.11-0.16-0.18-0.17c-0.2-0.04-0.42-0.08-0.62-0.06
				c-0.35,0.03-0.46,0.19-0.45,0.51c-0.08,0.05-0.19,0.08-0.21,0.14c-0.11,0.39,0.17,0.64,0.4,0.94c-0.09-0.01-0.14-0.01-0.17-0.03
				c-0.32-0.12-0.47-0.53-0.4-0.96c0.02-0.12-0.01-0.29-0.08-0.38c-0.32-0.43-0.2-0.89,0.09-1.11c0.12-0.09,0.22-0.2,0.35-0.28
				c0.06-0.03,0.16-0.03,0.23,0c0.11,0.05,0.22,0.13,0.31,0.22c0.06,0.05,0.09,0.13,0.13,0.2c-0.02,0.02-0.04,0.04-0.05,0.07
				c-0.18-0.06-0.36-0.12-0.54-0.18c-0.06-0.02-0.15-0.04-0.2-0.01c-0.35,0.21-0.39,0.8-0.05,1.09
				C38.89,18.97,39.45,18.88,40.1,19.12z M31.74,35.32c0.04,0.02,0.07,0.04,0.1,0.06c0.53,0.22,0.91,0.56,0.95,1.19
				c0,0.06,0.14,0.16,0.2,0.16c0.35-0.02,0.68-0.13,0.93-0.4c0.53-0.57,0.59-1.47,0.14-2.22c-0.45-0.75-1.17-1.03-1.98-1.14
				c-0.06-0.01-0.12,0.01-0.22,0.02c0.09,0.13,0.17,0.22,0.23,0.32c0.11,0.19,0.08,0.38-0.07,0.52c-0.11,0.1-0.27,0.19-0.41,0.19
				c-0.18,0-0.33-0.13-0.36-0.34c-0.03-0.16,0.02-0.27,0.22-0.31c-0.01,0.06,0,0.08-0.01,0.1c-0.08,0.17-0.02,0.29,0.14,0.34
				c0.15,0.05,0.32-0.09,0.34-0.26c0.03-0.26-0.1-0.5-0.36-0.53c-0.29-0.03-0.61-0.01-0.9,0.06c-0.61,0.16-1.11,0.49-1.42,1.05
				c-0.21,0.37-0.02,0.88,0.34,0.89c0.09,0,0.2-0.07,0.27-0.14c0.04-0.04,0.04-0.19,0.01-0.21c-0.08-0.04-0.18-0.04-0.27-0.05
				c-0.02,0-0.05-0.02-0.08-0.03c0.02-0.18,0.15-0.24,0.27-0.18c0.12,0.06,0.25,0.18,0.3,0.3c0.07,0.17-0.03,0.33-0.19,0.43
				c-0.26,0.14-0.6,0.06-0.77-0.2c-0.05-0.08-0.09-0.16-0.16-0.28c-0.23,0.63-0.26,1.22-0.06,1.8c0.29,0.85,0.95,1.26,1.81,1.38
				c0.59,0.08,1.12-0.09,1.49-0.6c0.08-0.11,0.12-0.21-0.03-0.29c-0.53-0.27-0.81-0.68-0.78-1.3c0-0.04-0.11-0.13-0.17-0.13
				c-0.29,0.02-0.5,0.23-0.58,0.53c-0.02,0.06-0.04,0.13-0.06,0.19c-0.07-0.04-0.09-0.08-0.1-0.12c-0.04-0.36,0.24-0.73,0.65-0.8
				c0.23-0.04,0.4-0.12,0.55-0.31c0.26-0.32,0.61-0.4,0.97-0.25c0.08,0.03,0.15,0.11,0.22,0.17C32.2,34.85,31.91,34.94,31.74,35.32z
				 M23.39,35.94c-0.52,0.61-0.9,1.21-0.78,1.99c0.13,0.82,0.61,1.39,1.4,1.64c0.52,0.17,1.06,0.15,1.52-0.23
				c-0.54-0.73-0.51-0.94-0.22-1.71c-0.31-0.2-0.75-0.06-0.95,0.3c-0.04,0.07-0.1,0.13-0.15,0.19c-0.03-0.01-0.05-0.02-0.08-0.04
				c0.02-0.09,0.02-0.2,0.05-0.28c0.15-0.37,0.63-0.58,1.08-0.47c0.17,0.04,0.3,0.03,0.45-0.07c0.37-0.26,0.89-0.17,1.18,0.17
				c0.05,0.06,0.06,0.15,0.12,0.28c-0.71-0.44-1.03-0.47-1.28-0.15c0.45,0.42,0.78,0.89,0.49,1.55c-0.01,0.03,0.05,0.14,0.1,0.16
				c0.65,0.27,1.62-0.14,1.91-0.8c0.41-0.92,0.21-1.9-0.55-2.55c-0.23-0.2-0.51-0.36-0.77-0.53c-0.02,0.17,0.01,0.28,0.02,0.39
				c0.03,0.26-0.12,0.48-0.37,0.54c-0.27,0.07-0.51-0.03-0.6-0.25c-0.07-0.18-0.02-0.33,0.13-0.42c0.07-0.04,0.19-0.01,0.3-0.01
				c-0.1,0.15-0.19,0.23-0.21,0.32c-0.01,0.05,0.13,0.19,0.17,0.17c0.12-0.04,0.28-0.1,0.33-0.2c0.14-0.28-0.08-0.66-0.47-0.73
				c-0.45-0.07-0.92-0.12-1.37-0.06c-0.35,0.05-0.68,0.25-0.99,0.44c-0.31,0.19-0.34,0.67-0.08,0.86c0.08,0.06,0.22,0.07,0.33,0.05
				c0.05-0.01,0.14-0.15,0.13-0.18c-0.04-0.08-0.14-0.14-0.22-0.2c-0.02-0.02-0.03-0.04-0.04-0.06c0.21-0.13,0.38-0.1,0.45,0.11
				c0.04,0.11,0.05,0.32-0.02,0.37c-0.13,0.11-0.33,0.19-0.49,0.18C23.59,36.69,23.46,36.47,23.39,35.94z M20.53,35.98
				c-0.12,0.04-0.21,0.08-0.3,0.11c0.03,0.08,0.05,0.21,0.1,0.23c0.11,0.03,0.25,0.03,0.35-0.01c0.07-0.03,0.13-0.14,0.14-0.23
				c0.05-0.27-0.04-0.5-0.27-0.67c-0.62-0.45-1.33-0.61-2.08-0.58c-0.42,0.02-0.72,0.35-0.71,0.7c0.01,0.19,0.12,0.29,0.28,0.3
				c0.09,0.01,0.18-0.09,0.27-0.13c-0.05-0.07-0.1-0.13-0.14-0.2c-0.02-0.03-0.05-0.06-0.07-0.1c0.28-0.08,0.42-0.01,0.47,0.23
				c0.04,0.18-0.12,0.4-0.31,0.43c-0.4,0.08-0.71-0.18-0.71-0.59c0-0.11,0-0.21,0-0.34c-0.79,0.26-1.32,0.77-1.51,1.57
				c-0.16,0.71,0.05,1.35,0.58,1.87c0.44,0.43,1.1,0.58,1.62,0.35c-0.29-0.67,0-1.17,0.53-1.6c-0.2-0.21-0.43-0.3-0.67-0.23
				c-0.22,0.06-0.43,0.18-0.65,0.28c0.01-0.12,0.05-0.22,0.12-0.29c0.32-0.31,0.86-0.31,1.24,0c0.12,0.1,0.23,0.12,0.37,0.07
				c0.38-0.12,0.75-0.02,0.96,0.32c0.15,0.24,0.23,0.53,0.32,0.81c0.02,0.05-0.06,0.15-0.12,0.19c-0.09,0.07-0.19,0.13-0.29,0.16
				c-0.07,0.02-0.15,0-0.23-0.01c0.01-0.07,0.01-0.14,0.05-0.19c0.08-0.12,0.2-0.21,0.27-0.33c0.04-0.08,0.06-0.22,0.02-0.3
				c-0.17-0.36-0.56-0.51-0.98-0.39c0.33,0.62,0.28,1.19-0.28,1.7c0.52,0.4,1.07,0.54,1.67,0.32c0.78-0.28,1.24-0.87,1.28-1.74
				c0.03-0.69-0.22-1.3-0.79-1.81c-0.01,0.12,0,0.19-0.02,0.26c-0.04,0.24-0.23,0.39-0.52,0.44c-0.25,0.04-0.41-0.08-0.52-0.28
				c-0.09-0.18-0.02-0.38,0.18-0.47C20.35,35.78,20.46,35.83,20.53,35.98z M36.21,31.06c0.06,0.02,0.1,0.04,0.14,0.04
				c0.59,0.01,1.06,0.21,1.35,0.76c0.02,0.04,0.14,0.08,0.17,0.06c0.19-0.13,0.43-0.23,0.53-0.41c0.34-0.61,0.29-1.24-0.08-1.82
				c-0.58-0.91-1.47-1.1-2.46-0.99c-0.16,0.02-0.32,0.08-0.5,0.13c0.18,0.14,0.34,0.22,0.45,0.35c0.17,0.2,0.12,0.52-0.08,0.66
				c-0.2,0.14-0.46,0.09-0.61-0.12c-0.12-0.17-0.07-0.29,0.06-0.33c0.09,0.12,0.16,0.25,0.26,0.31c0.04,0.02,0.24-0.09,0.24-0.15
				c0.01-0.13-0.02-0.31-0.11-0.4c-0.1-0.1-0.29-0.18-0.42-0.17c-0.22,0.03-0.45,0.11-0.63,0.23c-0.63,0.4-0.95,1.01-1,1.75
				c-0.02,0.35,0.33,0.67,0.63,0.59c0.1-0.03,0.19-0.13,0.24-0.23c0.03-0.06-0.04-0.22-0.08-0.23c-0.08-0.02-0.18,0.05-0.28,0.08
				c-0.01,0-0.03,0-0.05-0.01c-0.04-0.22,0.05-0.32,0.26-0.3c0.23,0.03,0.41,0.24,0.39,0.46c-0.03,0.22-0.3,0.45-0.52,0.4
				c-0.2-0.04-0.38-0.15-0.6-0.24c0.02,0.13,0.03,0.26,0.05,0.39c0.26,1.37,1.42,2.28,2.84,1.94c0.55-0.13,0.99-0.59,1.03-1.1
				c0.01-0.14,0.01-0.26-0.19-0.28c-0.56-0.05-0.92-0.36-1.13-0.87c-0.08-0.18-0.17-0.19-0.3-0.07c-0.24,0.22-0.31,0.5-0.23,0.81
				c0.02,0.06,0.03,0.13,0.05,0.19c-0.02,0.01-0.05,0.02-0.07,0.03c-0.06-0.08-0.13-0.15-0.17-0.24c-0.15-0.35-0.02-0.72,0.38-0.98
				c0.15-0.1,0.22-0.2,0.25-0.38c0.07-0.49,0.65-0.8,1.09-0.56C36.64,30.41,36.28,30.54,36.21,31.06z M21.05,7.87
				c0.75-0.59,1.08-1.83,0.36-2.77c-0.69-0.9-1.99-0.95-2.5-0.47c0.43,0.45,0.6,0.95,0.27,1.54c-0.02,0.04,0.05,0.18,0.1,0.2
				c0.33,0.1,0.71-0.12,0.85-0.45c0.06-0.15,0.02-0.23-0.09-0.33c-0.13-0.12-0.23-0.27-0.36-0.42c0.21-0.05,0.68,0.16,0.73,0.28
				c0.02,0.05,0.01,0.12,0,0.17c-0.03,0.13-0.07,0.26-0.12,0.39c-0.04,0.11-0.08,0.22-0.15,0.3c-0.26,0.28-0.59,0.29-0.94,0.23
				c-0.12-0.02-0.26,0.01-0.36,0.06c-0.33,0.17-0.65,0.24-1,0.07c-0.19-0.1-0.35-0.22-0.36-0.54c0.39,0.4,0.78,0.52,1.25,0.24
				c-0.04-0.05-0.06-0.08-0.08-0.1C18.2,5.95,18.07,5.5,18.19,5c0.06-0.26-0.03-0.33-0.23-0.36c-1.14-0.17-1.89,0.63-1.94,1.6
				c-0.04,0.84,0.41,1.41,1.04,1.88c0.16,0.12,0.34,0.2,0.55,0.33c-0.02-0.21-0.05-0.35-0.04-0.49c0.02-0.27,0.27-0.44,0.57-0.41
				c0.27,0.03,0.45,0.21,0.4,0.46c-0.02,0.09-0.11,0.2-0.19,0.24c-0.07,0.03-0.18-0.02-0.27-0.04c0-0.03,0-0.05,0.01-0.08
				c0.03-0.02,0.07-0.04,0.1-0.06c0.04-0.03,0.1-0.07,0.1-0.11c0-0.06-0.03-0.14-0.08-0.17c-0.17-0.11-0.39-0.01-0.43,0.2
				c-0.04,0.25,0.06,0.42,0.27,0.55C18.5,8.81,19,8.82,19.5,8.73c0.35-0.06,0.68-0.24,1.01-0.39c0.22-0.1,0.32-0.33,0.28-0.55
				c-0.02-0.13-0.13-0.27-0.24-0.35c-0.06-0.04-0.21,0-0.3,0.05c-0.04,0.02-0.06,0.18-0.03,0.19c0.08,0.04,0.17,0.05,0.26,0.07
				c0.01,0,0.02,0.02,0.06,0.07c-0.07,0.05-0.14,0.11-0.22,0.13c-0.17,0.04-0.35-0.13-0.38-0.32c-0.03-0.2,0.12-0.4,0.34-0.44
				C20.67,7.13,20.94,7.35,21.05,7.87z M25.41,5.03c-0.5-0.53-1.42-0.6-2.06-0.14c-1.11,0.79-0.98,2.16-0.06,3.1
				c0.01-0.01,0.03-0.02,0.04-0.03c0.02-0.04,0.03-0.08,0.04-0.12c0.06-0.29,0.22-0.43,0.5-0.44c0.27-0.01,0.51,0.16,0.57,0.42
				c0.04,0.16-0.1,0.38-0.27,0.39c-0.15,0.01-0.3,0.01-0.28-0.19c0.11-0.05,0.2-0.09,0.29-0.13c-0.04-0.07-0.05-0.17-0.11-0.21
				c-0.18-0.13-0.46,0.02-0.49,0.23c-0.04,0.27,0.05,0.48,0.28,0.64c0.63,0.43,1.32,0.62,2.07,0.57c0.33-0.02,0.59-0.23,0.65-0.48
				c0.04-0.19-0.08-0.4-0.27-0.42c-0.08-0.01-0.16,0.08-0.24,0.13c0.01,0.03,0.02,0.05,0.03,0.08c0.03,0.01,0.07,0.01,0.09,0.03
				c0.05,0.05,0.09,0.11,0.14,0.17c-0.06,0.03-0.12,0.09-0.18,0.1c-0.24,0.01-0.44-0.31-0.34-0.51c0.14-0.28,0.52-0.35,0.76-0.15
				c0.26,0.21,0.29,0.47,0.2,0.79c0.06,0,0.11,0.01,0.14,0c0.49-0.22,0.93-0.53,1.17-1.01c0.33-0.67,0.25-1.35-0.17-1.96
				c-0.39-0.57-0.95-0.82-1.66-0.75c-0.21,0.02-0.14,0.13-0.11,0.24c0.12,0.45,0.07,0.86-0.25,1.21c-0.33,0.37-0.77,0.37-1.2,0.29
				c-0.44-0.08-0.82-0.65-0.79-1.11c0-0.04,0.01-0.1,0.04-0.12c0.19-0.09,0.38-0.16,0.57-0.24c0.03,0.03,0.05,0.07,0.08,0.1
				c-0.11,0.13-0.23,0.26-0.33,0.4c-0.05,0.06-0.12,0.13-0.11,0.19c0.05,0.37,0.7,0.68,1.03,0.51C24.87,6.06,24.83,5.63,25.41,5.03z
				 M37.2,12.82c0.01-0.64-0.4-1.15-1.16-1.38c-0.93-0.29-1.69-0.07-2.21,0.57c-0.36,0.44-0.52,1.13-0.38,1.34
				c0.42-0.25,0.69-0.22,0.95,0.1c0.12,0.15,0.16,0.3,0.06,0.47c-0.1,0.17-0.26,0.21-0.44,0.19c-0.2-0.03-0.28-0.21-0.17-0.41
				c0.03,0.02,0.05,0.04,0.08,0.05c0.07,0.04,0.15,0.09,0.22,0.13c0.01-0.09,0.07-0.22,0.03-0.27c-0.07-0.09-0.19-0.18-0.3-0.19
				c-0.29-0.02-0.51,0.27-0.48,0.56c0.08,0.7,0.42,1.25,0.93,1.71c0.28,0.25,0.61,0.43,1.02,0.27c0.16-0.06,0.26-0.18,0.22-0.35
				c-0.05-0.19-0.2-0.2-0.38-0.16c0,0.06,0.01,0.1,0.01,0.14c-0.01,0.06-0.03,0.11-0.05,0.17c-0.07-0.02-0.16-0.03-0.19-0.07
				c-0.04-0.06-0.05-0.16-0.04-0.24c0.02-0.2,0.18-0.28,0.35-0.28c0.2,0,0.39,0.08,0.47,0.29c0.07,0.18,0.11,0.37-0.06,0.51
				c-0.12,0.1-0.25,0.16-0.38,0.24c0,0.03,0,0.06,0,0.09c0.35,0.06,0.69,0.11,1.04,0.18c0.9,0.17,1.87-0.37,2.09-1.29
				c0.16-0.69-0.03-1.36-0.6-1.69c-0.16-0.1-0.25-0.1-0.34,0.07c-0.15,0.3-0.43,0.43-0.74,0.48c-0.22,0.03-0.44,0.02-0.66,0.03
				c-0.05,0.45,0.48,0.75,0.87,0.76c0.03,0,0.08-0.03,0.1-0.06c0.09-0.13,0.17-0.28,0.26-0.41c0.03-0.04,0.11-0.05,0.16-0.07
				c0.02,0.05,0.06,0.11,0.05,0.15c-0.03,0.16-0.04,0.33-0.12,0.46c-0.04,0.05-0.23,0.01-0.35,0.01c-0.02,0-0.05,0.02-0.07,0.03
				c-0.61,0.15-1.05-0.26-1.17-0.77c-0.03-0.12-0.11-0.24-0.2-0.31c-0.22-0.16-0.42-0.33-0.43-0.62c-0.01-0.26-0.04-0.54,0.25-0.69
				c0.03-0.01,0.04-0.07,0.04-0.11c0-0.22,0.1-0.25,0.28-0.17c0.08,0.03,0.16,0.05,0.25,0.06c0.16,0.03,0.23,0.12,0.22,0.29
				c-0.18,0.01-0.36,0.06-0.5,0.01c-0.22-0.08-0.27,0.08-0.32,0.2c-0.15,0.33,0.09,0.78,0.47,0.9
				C36.07,13.07,36.56,12.83,37.2,12.82z M7.69,30.2C7.25,30.21,7,30.44,6.81,30.78c-0.07,0.13-0.03,0.23,0.11,0.24
				c0.35,0.03,0.69-0.05,0.93-0.31c0.09-0.09,0.12-0.26,0.13-0.39C7.99,30.28,7.79,30.24,7.69,30.2z M11.89,35.76
				c-0.01,0.24,0.05,0.3,0.23,0.24c0.36-0.12,0.67-0.51,0.68-0.89c0-0.17-0.06-0.26-0.25-0.19C12.19,35.03,11.9,35.4,11.89,35.76z
				 M18.61,4.89c-0.27,0.42-0.21,0.89,0.13,1.18C18.9,6.22,18.98,6.2,19.05,6C19.2,5.59,19.01,5.09,18.61,4.89z M36.41,31.3
				c-0.02,0.01-0.14,0.02-0.17,0.08c-0.03,0.06,0.02,0.17,0.06,0.26c0.18,0.39,0.54,0.46,0.91,0.5c0.18,0.02,0.19-0.1,0.14-0.24
				C37.23,31.59,36.83,31.31,36.41,31.3z M36.9,13.11c-0.35,0.03-0.67,0.24-0.8,0.54c-0.06,0.14,0,0.22,0.13,0.23
				c0.34,0.02,0.65-0.04,0.86-0.34c0.06-0.09,0.12-0.22,0.09-0.31C37.16,13.18,37,13.15,36.9,13.11z M32.44,36.61
				c0.11-0.44-0.2-0.97-0.64-1.07c-0.05-0.01-0.15,0.05-0.16,0.09C31.5,36.14,32.07,36.7,32.44,36.61z M25.82,39.02
				c0.35-0.28,0.19-0.98-0.14-1.22c-0.1-0.07-0.17-0.07-0.24,0.06C25.26,38.25,25.39,38.69,25.82,39.02z M31.51,9.24
				c0.51-0.11,0.76-0.39,0.78-0.86c0.01-0.16-0.11-0.23-0.24-0.15c-0.18,0.1-0.38,0.22-0.49,0.39C31.45,8.79,31.31,9.02,31.51,9.24z
				 M18.65,38.8c0.44-0.27,0.58-0.7,0.37-1.12c-0.08-0.16-0.15-0.15-0.27-0.06C18.45,37.87,18.39,38.43,18.65,38.8z M25.5,6.52
				c0.37-0.22,0.49-0.72,0.28-1.08c-0.09-0.16-0.18-0.09-0.27-0.02C25.23,5.64,25.14,6.33,25.5,6.52z"/>
			<path class="st1" d="M22.61,33.61c-1.38-0.04-2.72-0.28-4.04-0.69c-1.53-0.48-2.88-1.25-4.12-2.23
				c-1.25-0.99-2.28-2.18-3.07-3.57c-0.72-1.27-1.21-2.62-1.42-4.06c-0.06-0.46-0.07-0.93-0.11-1.4c-0.03-0.3-0.09-0.6-0.09-0.91
				c0-0.29,0.05-0.59,0.1-0.88c0.18-1.12,0.5-2.19,1.02-3.21c0.42-0.84,0.94-1.62,1.56-2.32c1.08-1.23,2.37-2.18,3.86-2.86
				c0.77-0.35,1.57-0.65,2.4-0.81c0.56-0.1,1.12-0.19,1.68-0.24c0.55-0.05,1.11-0.07,1.66-0.05c1.15,0.04,2.28,0.2,3.36,0.6
				c0.79,0.29,1.58,0.61,2.34,0.97c0.95,0.45,1.79,1.08,2.57,1.79c1.31,1.18,2.33,2.58,3.07,4.18c0.38,0.83,0.66,1.69,0.83,2.59
				c0.17,0.96,0.19,1.92,0.12,2.9c-0.06,0.95-0.26,1.86-0.57,2.75c-0.54,1.56-1.44,2.89-2.62,4.04c-1.75,1.71-3.84,2.74-6.23,3.19
				C24.16,33.53,23.38,33.54,22.61,33.61z M22.64,33.28c0.38-0.02,0.77-0.03,1.15-0.08c0.61-0.08,1.24-0.13,1.83-0.29
				c1.88-0.49,3.58-1.32,5.03-2.66c1.03-0.95,1.89-2.03,2.48-3.31c0.64-1.39,0.95-2.87,0.94-4.4c0-0.6-0.09-1.2-0.18-1.79
				c-0.25-1.52-0.82-2.92-1.65-4.22c-0.84-1.31-1.9-2.41-3.16-3.33c-1.18-0.86-2.47-1.49-3.86-1.92c-0.95-0.29-1.92-0.47-2.92-0.53
				c-0.98-0.05-1.96-0.02-2.93,0.13c-0.86,0.13-1.68,0.38-2.48,0.71c-2.01,0.83-3.66,2.12-4.92,3.89c-0.96,1.34-1.54,2.86-1.8,4.49
				c-0.06,0.34-0.19,0.7,0.02,1.04c0.03,0.04,0,0.12,0,0.18c0.02,0.57,0.01,1.15,0.07,1.71c0.1,0.87,0.35,1.7,0.67,2.52
				c0.53,1.34,1.27,2.56,2.24,3.63c1.25,1.38,2.73,2.44,4.44,3.16C19.22,32.9,20.89,33.26,22.64,33.28z"/>
			<path class="st1" d="M24.5,9.93c0,0.25-0.21,0.45-0.45,0.45c-0.24,0-0.51-0.24-0.52-0.45c-0.01-0.25,0.24-0.51,0.5-0.51
				C24.3,9.41,24.5,9.62,24.5,9.93z"/>
			<path class="st1" d="M16.58,11.03c-0.31,0-0.49-0.18-0.49-0.49c0-0.25,0.17-0.42,0.43-0.43c0.29,0,0.5,0.22,0.51,0.52
				C17.03,10.89,16.88,11.03,16.58,11.03z"/>
			<path class="st1" d="M28.78,12.21c-0.28-0.01-0.53-0.23-0.53-0.45c0-0.24,0.24-0.48,0.47-0.48c0.29,0.01,0.52,0.26,0.51,0.56
				C29.22,12.08,29.06,12.22,28.78,12.21z"/>
			<path class="st1" d="M26.44,10.16c0.31,0,0.53,0.19,0.52,0.47c0,0.26-0.21,0.45-0.49,0.45c-0.24,0-0.49-0.22-0.49-0.43
				C25.98,10.34,26.14,10.16,26.44,10.16z"/>
			<path class="st1" d="M19.46,9.92c0,0.3-0.12,0.41-0.45,0.41c-0.31,0-0.49-0.19-0.49-0.51c0-0.25,0.17-0.43,0.41-0.41
				C19.28,9.43,19.47,9.59,19.46,9.92z"/>
			<path class="st1" d="M31.33,13.26c0.01,0.26-0.2,0.47-0.46,0.48c-0.25,0.01-0.52-0.24-0.52-0.49c0-0.21,0.25-0.46,0.49-0.46
				C31.04,12.79,31.32,13.05,31.33,13.26z"/>
			<path class="st1" d="M21.46,9.23C21.79,9.18,22,9.45,22.02,9.7c0.02,0.23-0.21,0.43-0.47,0.43c-0.33,0-0.51-0.17-0.51-0.5
				C21.04,9.33,21.14,9.23,21.46,9.23z"/>
			<path class="st1" d="M17.87,33.87c-0.3,0-0.52-0.2-0.51-0.48c0-0.24,0.22-0.45,0.46-0.45c0.26,0.01,0.5,0.26,0.5,0.52
				C18.32,33.71,18.13,33.87,17.87,33.87z"/>
			<path class="st1" d="M20.35,34.57c-0.27,0-0.49-0.22-0.48-0.49c0.01-0.24,0.22-0.44,0.47-0.44c0.27,0,0.48,0.22,0.47,0.49
				C20.81,34.4,20.63,34.58,20.35,34.57z"/>
			<path class="st1" d="M34.32,17.25c0,0.27-0.15,0.44-0.42,0.44c-0.29,0-0.52-0.23-0.52-0.51c0-0.22,0.22-0.41,0.46-0.41
				C34.14,16.78,34.32,16.97,34.32,17.25z"/>
			<path class="st1" d="M12.91,13.28c0,0.21-0.23,0.42-0.44,0.42c-0.29-0.01-0.54-0.25-0.54-0.52c0-0.2,0.24-0.4,0.46-0.39
				C12.66,12.8,12.91,13.04,12.91,13.28z"/>
			<path class="st1" d="M35.24,19.58c0,0.23-0.21,0.42-0.46,0.42c-0.27,0-0.51-0.25-0.5-0.51c0-0.21,0.2-0.39,0.42-0.4
				C35,19.08,35.25,19.31,35.24,19.58z"/>
			<path class="st1" d="M22.93,33.86c0.26,0,0.49,0.23,0.5,0.49c0,0.23-0.21,0.42-0.45,0.43c-0.27,0-0.51-0.23-0.5-0.51
				C22.47,34.02,22.66,33.85,22.93,33.86z"/>
			<path class="st1" d="M32.58,15.57c-0.29,0-0.49-0.18-0.49-0.46c0-0.26,0.17-0.43,0.42-0.43c0.26,0,0.51,0.22,0.51,0.46
				C33.02,15.41,32.87,15.57,32.58,15.57z"/>
			<path class="st1" d="M28.33,33.33c0,0.23-0.21,0.42-0.45,0.42c-0.23,0.01-0.45-0.23-0.45-0.49c0-0.25,0.2-0.43,0.47-0.42
				C28.15,32.85,28.33,33.05,28.33,33.33z"/>
			<path class="st1" d="M9.73,16.82c0.31,0.01,0.51,0.19,0.51,0.45c0,0.27-0.17,0.43-0.47,0.42c-0.25-0.01-0.51-0.26-0.51-0.48
				C9.28,17.01,9.51,16.82,9.73,16.82z"/>
			<path class="st1" d="M25.01,34.02c0-0.27,0.18-0.43,0.47-0.42c0.26,0,0.47,0.21,0.47,0.47c0,0.26-0.18,0.43-0.47,0.42
				C25.2,34.48,25,34.28,25.01,34.02z"/>
			<path class="st1" d="M15.03,32.31c0.01-0.27,0.18-0.43,0.44-0.43c0.26,0.01,0.5,0.22,0.5,0.45c0,0.24-0.25,0.46-0.5,0.46
				C15.26,32.78,15.02,32.53,15.03,32.31z"/>
			<path class="st1" d="M9.12,19.19c0.27,0,0.51,0.21,0.49,0.44c-0.01,0.24-0.24,0.44-0.48,0.43c-0.27-0.01-0.5-0.23-0.5-0.48
				C8.64,19.32,8.81,19.19,9.12,19.19z"/>
			<path class="st1" d="M9.91,24.45c0,0.23-0.23,0.44-0.46,0.44c-0.23,0-0.46-0.23-0.47-0.45c-0.01-0.24,0.2-0.48,0.45-0.45
				C9.73,24.01,9.9,24.14,9.91,24.45z"/>
			<path class="st1" d="M10.85,15.57c-0.27-0.01-0.48-0.23-0.47-0.47c0.01-0.22,0.21-0.41,0.44-0.4c0.31,0.01,0.51,0.23,0.49,0.53
				C11.29,15.44,11.11,15.58,10.85,15.57z"/>
			<path class="st1" d="M11.65,29.37c-0.22,0-0.49-0.25-0.5-0.46c-0.01-0.2,0.24-0.43,0.48-0.44c0.23-0.01,0.49,0.23,0.5,0.45
				C12.14,29.16,11.92,29.37,11.65,29.37z"/>
			<path class="st1" d="M14.37,12.14c-0.28,0-0.51-0.21-0.51-0.46c0-0.22,0.23-0.41,0.47-0.41c0.25,0,0.49,0.23,0.48,0.46
				C14.81,12,14.65,12.14,14.37,12.14z"/>
			<path class="st1" d="M10.34,27.2c-0.31,0-0.44-0.12-0.44-0.42c0-0.26,0.17-0.43,0.45-0.44c0.19-0.01,0.48,0.27,0.48,0.45
				C10.82,27.03,10.62,27.2,10.34,27.2z"/>
			<path class="st1" d="M35.2,22.32c-0.29,0-0.49-0.18-0.49-0.43c0-0.27,0.17-0.44,0.42-0.44c0.24,0,0.51,0.24,0.51,0.45
				C35.63,22.17,35.47,22.32,35.2,22.32z"/>
			<path class="st1" d="M9.06,21.61c0.29,0,0.5,0.18,0.5,0.42c0,0.22-0.22,0.44-0.45,0.43c-0.29-0.01-0.48-0.2-0.48-0.48
				C8.63,21.72,8.76,21.61,9.06,21.61z"/>
			<path class="st1" d="M13.38,31.2c-0.29,0-0.44-0.15-0.44-0.44c0-0.22,0.22-0.44,0.44-0.43c0.24,0,0.45,0.22,0.45,0.47
				C13.82,31.05,13.66,31.2,13.38,31.2z"/>
			<path class="st1" d="M33.47,29.12c-0.25,0-0.5-0.21-0.51-0.44c-0.01-0.2,0.22-0.42,0.43-0.42c0.23-0.01,0.49,0.23,0.5,0.45
				C33.9,28.95,33.73,29.12,33.47,29.12z"/>
			<path class="st1" d="M34.48,26.17c0.28,0,0.47,0.17,0.48,0.43c0.01,0.25-0.17,0.4-0.46,0.4c-0.29-0.01-0.44-0.16-0.44-0.45
				C34.07,26.3,34.22,26.17,34.48,26.17z"/>
			<path class="st1" d="M34.6,24.25c0-0.2,0.23-0.39,0.46-0.38c0.24,0.01,0.46,0.21,0.47,0.42c0.01,0.24-0.19,0.42-0.45,0.42
				C34.82,24.7,34.6,24.49,34.6,24.25z"/>
			<path class="st1" d="M31.9,30.16c0.26,0,0.49,0.21,0.49,0.45c0,0.21-0.17,0.38-0.39,0.39c-0.29,0.01-0.51-0.19-0.51-0.45
				C31.49,30.31,31.65,30.16,31.9,30.16z"/>
			<path class="st1" d="M30.11,32.54c-0.27,0-0.5-0.2-0.49-0.44c0.01-0.21,0.2-0.41,0.41-0.41c0.25-0.01,0.47,0.21,0.48,0.47
				C30.52,32.38,30.36,32.54,30.11,32.54z"/>
			<path class="st1" d="M5.67,25.6c0.06-0.13,0.13-0.26,0.18-0.39c0.14-0.35,0.03-0.58-0.31-0.77c-0.11-0.06-0.15-0.23-0.21-0.33
				c0.08-0.01,0.26,0.01,0.3-0.05c0.06-0.09,0.05-0.25,0.02-0.37c-0.04-0.17-0.13-0.33-0.17-0.54c0.08,0.07,0.18,0.12,0.23,0.2
				c0.13,0.24,0.17,0.48,0.06,0.75c-0.03,0.08,0.03,0.22,0.09,0.31c0.16,0.25,0.28,0.52,0.15,0.81c-0.06,0.15-0.18,0.28-0.28,0.41
				C5.72,25.64,5.7,25.62,5.67,25.6z"/>
			<path class="st1" d="M4.83,25.5c0.18,0.15,0.52-0.05,0.61,0.31c-0.07,0.14-0.16,0.19-0.3,0.04c-0.05-0.06-0.14-0.1-0.2-0.15
				c-0.06-0.04-0.11-0.09-0.17-0.14C4.8,25.55,4.82,25.52,4.83,25.5z"/>
			<path class="st1" d="M4.82,22.81c0.02,0.08,0.08,0.2,0.05,0.22c-0.13,0.12-0.29,0.22-0.44,0.33c-0.02-0.03-0.05-0.06-0.07-0.08
				c0.13-0.16,0.25-0.31,0.38-0.47C4.77,22.81,4.8,22.81,4.82,22.81z"/>
			<path class="st1" d="M9.06,14.43c-0.05-0.15-0.09-0.26-0.12-0.37c-0.12,0.05-0.3,0.06-0.34,0.14c-0.04,0.1,0.02,0.26,0.07,0.38
				c0.03,0.07,0.13,0.11,0.2,0.16c-0.18,0.08-0.38-0.02-0.46-0.22c-0.09-0.25,0.05-0.58,0.28-0.65c0.24-0.07,0.51,0.04,0.54,0.24
				C9.25,14.25,9.27,14.43,9.06,14.43z"/>
			<path class="st1" d="M8.42,11.18c-0.14-0.02-0.28-0.04-0.42-0.06c-0.03-0.01-0.08-0.07-0.07-0.09c0.01-0.04,0.05-0.09,0.09-0.1
				c0.15-0.04,0.3-0.08,0.44-0.08c0.06,0,0.18,0.11,0.17,0.14c-0.02,0.08-0.1,0.16-0.15,0.23C8.46,11.21,8.44,11.2,8.42,11.18z"/>
			<path class="st1" d="M7,13.21c-0.09,0.07-0.16,0.13-0.23,0.19c-0.04-0.06-0.1-0.12-0.12-0.19C6.61,13.11,6.59,13,6.58,12.9
				c-0.01-0.04,0.01-0.09,0.03-0.13c0.01-0.01,0.08-0.02,0.09,0C6.79,12.9,6.88,13.03,7,13.21z"/>
			<path class="st1" d="M8.66,27.99c-0.15,0.39-0.14,0.63,0.04,0.67c0.27,0.07,0.33-0.12,0.36-0.34c0.02,0,0.05,0,0.07-0.01
				c0.03,0.09,0.11,0.2,0.08,0.27c-0.05,0.11-0.16,0.23-0.27,0.28c-0.21,0.09-0.48-0.09-0.55-0.33C8.32,28.26,8.42,28.05,8.66,27.99
				z"/>
			<path class="st1" d="M7.81,31.58c0.21,0,0.41-0.02,0.61,0.01c0.08,0.01,0.14,0.13,0.21,0.2c-0.08,0.02-0.15,0.06-0.23,0.07
				c-0.1,0.01-0.2-0.01-0.31-0.01C7.91,31.85,7.84,31.75,7.81,31.58z"/>
			<path class="st1" d="M6.56,29.79c-0.01-0.06-0.04-0.13-0.04-0.19c0.01-0.11,0.02-0.22,0.05-0.31c0.02-0.07,0.1-0.11,0.15-0.17
				c0.06,0.06,0.18,0.14,0.17,0.17c-0.06,0.18-0.16,0.35-0.24,0.52C6.62,29.8,6.59,29.79,6.56,29.79z"/>
			<path class="st1" d="M7.67,16.91c-0.21,0.08-0.5,0.03-0.51,0.33c-0.01,0.09,0.06,0.25,0.12,0.26c0.1,0.02,0.23-0.04,0.39-0.08
				c-0.02,0.05-0.02,0.17-0.07,0.18c-0.13,0.04-0.29,0.08-0.4,0.04c-0.23-0.08-0.31-0.31-0.24-0.52c0.07-0.19,0.33-0.33,0.53-0.29
				C7.54,16.86,7.59,16.88,7.67,16.91z"/>
			<path class="st1" d="M4.76,16.7c0.17-0.11,0.33-0.24,0.51-0.32c0.05-0.02,0.16,0.09,0.24,0.15c0,0.04,0,0.08-0.01,0.11
				c-0.23,0.06-0.46,0.12-0.68,0.18C4.81,16.79,4.79,16.75,4.76,16.7z"/>
			<path class="st1" d="M4.32,18.86c0.12,0.07,0.26,0.12,0.36,0.21c0.06,0.06,0.08,0.17,0.1,0.26c0,0.01-0.07,0.07-0.09,0.06
				c-0.07-0.04-0.14-0.09-0.19-0.16c-0.09-0.11-0.16-0.23-0.24-0.35C4.28,18.88,4.3,18.87,4.32,18.86z"/>
			<path class="st1" d="M11.37,8.05c0.04,0.15,0.11,0.3,0.11,0.45c0,0.11-0.05,0.28-0.23,0.21c-0.16-0.06-0.11-0.18-0.06-0.3
				c0.02-0.06,0.01-0.14,0.03-0.21c0.01-0.05,0.05-0.11,0.07-0.16C11.32,8.04,11.34,8.04,11.37,8.05z"/>
			<path class="st1" d="M13.29,6.94c0.2,0.04,0.39,0.08,0.58,0.14c0.03,0.01,0.06,0.12,0.04,0.18c-0.01,0.04-0.12,0.09-0.15,0.07
				c-0.18-0.09-0.34-0.2-0.51-0.31C13.27,6.99,13.28,6.97,13.29,6.94z"/>
			<path class="st1" d="M13.83,35.9c0.11,0.25,0.11,0.39-0.17,0.39c-0.1,0-0.21,0.08-0.31,0.08c-0.07,0-0.14-0.07-0.2-0.1
				c0.04-0.06,0.07-0.15,0.12-0.18C13.44,36.02,13.63,35.97,13.83,35.9z"/>
			<path class="st1" d="M11.27,35.02c-0.05-0.07-0.13-0.12-0.16-0.2c-0.04-0.1-0.07-0.22-0.05-0.32c0.01-0.08,0.09-0.16,0.14-0.24
				c0.07,0.05,0.19,0.09,0.2,0.15c0.02,0.19-0.01,0.38-0.02,0.57C11.34,35,11.31,35.01,11.27,35.02z"/>
			<path class="st1" d="M36.65,26.85c0.11-0.11,0.24-0.21,0.34-0.34c0.03-0.04,0-0.16-0.04-0.21c-0.15-0.19-0.27-0.08-0.38,0.09
				c-0.02-0.01-0.05-0.03-0.07-0.04c0-0.07-0.01-0.15,0.02-0.21c0.1-0.16,0.35-0.17,0.52-0.04c0.18,0.14,0.22,0.4,0.08,0.59
				C36.97,26.9,36.8,26.95,36.65,26.85z"/>
			<path class="st1" d="M31.3,36.86c-0.07,0.02-0.14,0.06-0.2,0.05c-0.12-0.01-0.26-0.02-0.37-0.08c-0.08-0.05-0.18-0.16-0.18-0.25
				c0.01-0.15,0.13-0.15,0.24-0.08c0.14,0.08,0.28,0.15,0.42,0.22c0.04,0.02,0.08,0.04,0.12,0.05C31.32,36.8,31.31,36.83,31.3,36.86
				z"/>
			<path class="st1" d="M33.37,35.26c-0.09,0.2-0.16,0.36-0.23,0.52c-0.07-0.14-0.18-0.27-0.19-0.42c-0.01-0.09,0.12-0.19,0.19-0.29
				C33.2,35.13,33.28,35.19,33.37,35.26z"/>
			<path class="st1" d="M24.79,38.74c-0.25,0.05-0.69-0.13-0.74-0.27c-0.02-0.07-0.02-0.18,0.03-0.22c0.03-0.04,0.17-0.05,0.21-0.01
				C24.45,38.38,24.59,38.54,24.79,38.74z"/>
			<path class="st1" d="M27.3,37.99c-0.1,0.13-0.22,0.29-0.35,0.44c-0.02,0.02-0.15-0.03-0.18-0.08c-0.06-0.1,0.12-0.52,0.23-0.57
				C27.11,37.72,27.3,37.83,27.3,37.99z"/>
			<path class="st1" d="M17.75,38.04c-0.04,0.06-0.07,0.13-0.1,0.13c-0.06,0-0.14-0.01-0.18-0.05c-0.1-0.11-0.2-0.22-0.26-0.36
				c-0.03-0.07,0.01-0.18,0.02-0.27c0.09,0.01,0.23-0.01,0.27,0.05C17.6,37.69,17.67,37.87,17.75,38.04z"/>
			<path class="st1" d="M36.09,32.84c-0.08,0.01-0.16,0.03-0.25,0.04c-0.06,0-0.12-0.01-0.19-0.02c0.02-0.09,0.03-0.24,0.06-0.25
				c0.23-0.03,0.46-0.03,0.69-0.04c0.02,0,0.06,0.08,0.05,0.1c-0.03,0.06-0.08,0.14-0.14,0.17c-0.06,0.03-0.15,0.01-0.22,0.02
				C36.09,32.85,36.09,32.85,36.09,32.84z"/>
			<path class="st1" d="M17.75,5.52c-0.11,0.21-0.19,0.39-0.29,0.54c-0.02,0.04-0.16,0.05-0.2,0.01c-0.05-0.04-0.1-0.17-0.08-0.21
				c0.08-0.13,0.18-0.26,0.3-0.36C17.52,5.47,17.63,5.51,17.75,5.52z"/>
			<path class="st1" d="M30.43,8.34c-0.03-0.07-0.06-0.14-0.09-0.21C30.29,7.99,30.33,7.9,30.5,7.9c0.14-0.01,0.28-0.04,0.43-0.04
				c0.07,0,0.14,0.06,0.2,0.1c0,0.03,0,0.06,0.01,0.09c-0.18,0.07-0.36,0.14-0.54,0.21C30.54,8.28,30.48,8.31,30.43,8.34
				C30.43,8.34,30.43,8.34,30.43,8.34z"/>
			<path class="st1" d="M14.34,28.99c0.38,0.11,0.74,0.24,1.12,0.31c0.89,0.15,1.76,0.05,2.61-0.22c0.7-0.23,1.39-0.52,2.15-0.5
				c0.38,0.01,0.76,0.02,1.12,0.12c0.45,0.13,0.88,0.12,1.32,0.05c0.5-0.08,0.98,0,1.43,0.17c0.66,0.25,1.29,0.61,1.95,0.86
				c0.52,0.2,1.07,0.31,1.61,0.43c0.27,0.06,0.55,0.05,0.83,0.13c-0.11,0.01-0.22,0.05-0.33,0.04c-0.94-0.06-1.84-0.25-2.7-0.67
				c-0.47-0.23-0.96-0.44-1.45-0.6c-0.45-0.15-0.93-0.18-1.41-0.11c-0.5,0.07-0.99,0.07-1.49-0.09c-0.59-0.19-1.22-0.15-1.83,0.04
				c-0.49,0.15-0.98,0.32-1.49,0.43c-0.32,0.07-0.65,0.05-0.98,0.07c-0.28,0.02-0.55,0.04-0.83,0.04c-0.58,0.01-1.12-0.17-1.61-0.47
				C14.34,29.03,14.34,29,14.34,28.99z"/>
			<path class="st1" d="M26.26,28.53c-1.05-0.26-2.12-0.42-3.2-0.35c-0.35,0.02-0.7,0.14-1.05,0.22c-0.04,0.01-0.1,0.01-0.14-0.01
				c-0.51-0.14-1.01-0.34-1.53-0.41c-0.66-0.09-1.33-0.09-1.99-0.11c-0.23-0.01-0.46,0.02-0.69,0.04c-0.01-0.02-0.02-0.04-0.02-0.06
				c0.1-0.04,0.19-0.11,0.29-0.12c0.57-0.03,1.15-0.06,1.72-0.07c0.78-0.01,1.53,0.17,2.26,0.43c0.06,0.02,0.13,0.02,0.19,0
				c0.73-0.17,1.46-0.24,2.2-0.12c0.53,0.09,1.05,0.18,1.57,0.29c0.15,0.03,0.29,0.13,0.44,0.19C26.29,28.48,26.28,28.5,26.26,28.53
				z"/>
			<path class="st1" d="M16.46,27.88c0.2,0.04,0.4,0.23,0.36,0.37c-0.02,0.08-0.15,0.21-0.21,0.2c-0.15-0.03-0.4-0.01-0.38-0.27
				C16.24,28.07,16.38,27.98,16.46,27.88z"/>
			<path class="st1" d="M27.67,29.06c-0.1,0.05-0.22,0.17-0.29,0.15c-0.11-0.04-0.19-0.18-0.28-0.27c0.09-0.07,0.19-0.21,0.27-0.21
				c0.11,0.01,0.21,0.14,0.31,0.21C27.68,28.98,27.68,29.02,27.67,29.06z"/>
		</g>
	</g>
</g>
</svg>
